# xmcd CD database file
#
# Track frame offsets:
#	150
#	16222
#	27470
#	41530
#	55317
#	80055
#	97952
#	111935
#	131420
#	146752
#	158980
#	166860
#
# Disc length: 2382 seconds
#
# Revision: 0
# Processed by: cddbd v1.5.1PL0 Copyright (c) Steve Scherf et al.
# Submitted via: CDex 1.50
#
DISCID=9b094c0c
DTITLE=Enochian - NIGHT MONUMENTAL EVIL
DYEAR=1900
DGENRE=Heavy Metal
TTITLE0=INTRO EN TRAGISK SYMFONI
TTITLE1=VIKINGSVERD(LINDISFARN-FROSTORMENES BRANN)
TTITLE2=FUCKED HOLY TRUTH
TTITLE3=MYSTERIOUS EMPIRE OF THE MOON
TTITLE4=MONUMENTAL DEMONIUM
TTITLE5=BLACK CONSIL OF THE SATAN
TTITLE6=ANCIENT WAR RITES OF EVIL AND HATE
TTITLE7=IMPALERGRAVE OF THE WINTERSTORM
TTITLE8=HEDNINGENES HYMNE I LANDET I NORD
TTITLE9=DEN SKANDINAVISKE IS SAGAEN
TTITLE10=NORDISK FOLKLOR
TTITLE11=SNOWLAND
EXTD=
EXTT0=
EXTT1=
EXTT2=
EXTT3=
EXTT4=
EXTT5=
EXTT6=
EXTT7=
EXTT8=
EXTT9=
EXTT10=
EXTT11=
PLAYORDER=
